<svg xmlns="http://www.w3.org/2000/svg" version="1.1" xmlns:xlink="http://www.w3.org/1999/xlink" xmlns:svgjs="http://svgjs.dev/svgjs" width="2000" height="1999" viewBox="0 0 2000 1999"><g transform="matrix(1,0,0,1,-0.4314868804665366,-0.4312711370263287)"><svg viewBox="0 0 343 343" data-background-color="#ffffff" preserveAspectRatio="xMidYMid meet" height="1999" width="2000" xmlns="http://www.w3.org/2000/svg" xmlns:xlink="http://www.w3.org/1999/xlink"><g id="tight-bounds" transform="matrix(1,0,0,1,0.07400000000001228,0.07400000000001228)"><svg viewBox="0 0 342.8515585177538 342.8515585177538" height="342.8515585177538" width="342.8515585177538"><rect width="342.852" height="342.852" fill="url(#9537d446-6f89-4fc4-b639-9d5ab66379c9)" mask="url(#347a098e-d05e-4549-8880-59b4790dead4)" data-fill-palette-color="tertiary"></rect><g><svg></svg></g><g><svg viewBox="0 0 342.8515585177538 342.8515585177538" height="342.8515585177538" width="342.8515585177538"><g><path d="M0 171.426c0-94.676 76.75-171.426 171.426-171.426 94.676 0 171.426 76.75 171.426 171.426 0 94.676-76.75 171.426-171.426 171.426-94.676 0-171.426-76.75-171.426-171.426zM171.426 338.918c92.503 0 167.492-74.989 167.492-167.492 0-92.503-74.989-167.492-167.492-167.492-92.503 0-167.492 74.989-167.492 167.492 0 92.503 74.989 167.492 167.492 167.492z" data-fill-palette-color="tertiary" fill="url(#9537d446-6f89-4fc4-b639-9d5ab66379c9)" stroke="transparent"></path><ellipse rx="164.56874808852183" ry="164.56874808852183" cx="171.4257792588769" cy="171.4257792588769" fill="url(#9537d446-6f89-4fc4-b639-9d5ab66379c9)" stroke="transparent" stroke-width="0" fill-opacity="1" data-fill-palette-color="tertiary"></ellipse></g><g transform="matrix(1,0,0,1,64.84655864529836,95.2796645485888)"><svg viewBox="0 0 213.15844122715708 152.2922294205762" height="152.2922294205762" width="213.15844122715708"><g><svg viewBox="0 0 213.15844122715708 152.2922294205762" height="152.2922294205762" width="213.15844122715708"><g><svg viewBox="0 0 213.15844122715714 152.29222942057623" height="152.2922294205762" width="213.15844122715708"><g transform="matrix(1,0,0,1,0,78.19120445837271)"><svg viewBox="0 0 213.15844122715714 74.10102496220351" height="74.10102496220351" width="213.15844122715714"><g id="textblocktransform"><svg viewBox="0 0 213.15844122715714 74.10102496220351" height="74.10102496220351" width="213.15844122715714" id="textblock"><g><svg viewBox="0 0 213.15844122715714 43.622482807623506" height="43.622482807623506" width="213.15844122715714"><g transform="matrix(1,0,0,1,0,0)"><svg width="213.15844122715714" viewBox="2.69 -38.43 189.06 38.7" height="43.622482807623506" data-palette-color="#000000"><path d="M18.46-16.46L18.46-16.46 10.64-16.19 8.89-0.78Q8.79-0.22 8.25-0.17L8.25-0.17 3.22 0.1Q2.69 0.1 2.69-0.37L2.69-0.37 6.93-37.3Q7.03-37.82 7.57-37.87L7.57-37.87 20.95-38.43Q21.56-38.35 21.56-37.77L21.56-37.77 20.95-32.71Q20.87-32.08 20.31-32.06L20.31-32.06 12.45-31.79 11.38-22.41 19.09-22.68Q19.73-22.66 19.73-22.05L19.73-22.05 19.09-17.07Q18.99-16.5 18.46-16.46ZM37.08-0.51L37.08-0.51 37.28-2.39Q34.32 0.27 30.59 0.27L30.59 0.27Q27.78 0.27 26.45-1.78 25.12-3.83 25.12-6.91L25.12-6.91Q25.12-7.42 25.22-8.3L25.22-8.3 27.54-28.74Q27.61-29.32 28.15-29.35L28.15-29.35 33.08-29.54Q33.59-29.49 33.59-29.03L33.59-29.03 31.39-9.77Q31.32-9.13 31.32-8.59L31.32-8.59Q31.32-6.54 32.11-5.86 32.91-5.18 34.51-5.18 36.11-5.18 37.67-5.79L37.67-5.79 40.26-28.74Q40.33-29.32 40.87-29.35L40.87-29.35 45.8-29.52Q46.31-29.47 46.31-29L46.31-29 43.14-0.76Q43.06-0.17 42.48-0.12L42.48-0.12 37.72 0.1Q37.08 0.07 37.08-0.51ZM59.64-28.88L59.64-28.88 59.37-26.64Q62.89-29.74 66.11-29.74L66.11-29.74Q70.21-29.74 71.28-25.24L71.28-25.24Q71.58-24.02 71.58-22.94 71.58-21.85 71.5-21.19L71.5-21.19 69.16-0.73Q69.06-0.12 68.55-0.07L68.55-0.07 63.62 0.1Q63.08 0.05 63.08-0.37L63.08-0.37 65.3-19.7Q65.38-20.34 65.38-20.85L65.38-20.85Q65.38-22.85 64.44-23.57 63.5-24.29 62.06-24.29 60.62-24.29 59.05-23.68L59.05-23.68 56.44-0.73Q56.34-0.12 55.83-0.07L55.83-0.07 50.9 0.1Q50.36 0.05 50.36-0.37L50.36-0.37 53.58-28.76Q53.68-29.3 54.19-29.35L54.19-29.35 58.98-29.52Q59.64-29.49 59.64-28.88ZM88.2-29.35L90.52-29.42Q91.08-34.79 91.25-34.97 91.42-35.16 91.76-35.18L91.76-35.18 96.43-35.35Q97.08-35.3 97.08-34.74L97.08-34.74Q96.62-32.03 96.3-29.54L96.3-29.54 101.99-29.74Q102.58-29.71 102.58-29.1L102.58-29.1 101.89-25.22Q101.8-24.63 101.28-24.61L101.28-24.61 95.69-24.39Q94.03-9.45 94.03-7.91L94.03-7.91Q94.03-5.05 96.47-5.05L96.47-5.05Q97.72-5.05 98.89-5.44 100.06-5.83 100.36-5.83L100.36-5.83Q100.87-5.83 100.87-5.2L100.87-5.2 100.36-0.93Q100.31-0.56 100.17-0.39 100.04-0.22 98.98 0.02 97.91 0.27 95.35 0.27L95.35 0.27Q91.59 0.27 89.78-1.48 87.98-3.22 87.98-6.69 87.98-10.16 89.91-24.32L89.91-24.32 87.51-24.22Q86.9-24.24 86.9-24.83L86.9-24.83 87.56-28.76Q87.64-29.32 88.2-29.35L88.2-29.35ZM117.61-0.51L117.61-0.51 117.81-2.39Q114.86 0.27 111.12 0.27L111.12 0.27Q108.31 0.27 106.98-1.78 105.65-3.83 105.65-6.91L105.65-6.91Q105.65-7.42 105.75-8.3L105.75-8.3 108.07-28.74Q108.14-29.32 108.68-29.35L108.68-29.35 113.61-29.54Q114.12-29.49 114.12-29.03L114.12-29.03 111.93-9.77Q111.85-9.13 111.85-8.59L111.85-8.59Q111.85-6.54 112.65-5.86 113.44-5.18 115.04-5.18 116.64-5.18 118.2-5.79L118.2-5.79 120.79-28.74Q120.86-29.32 121.4-29.35L121.4-29.35 126.33-29.52Q126.84-29.47 126.84-29L126.84-29 123.67-0.76Q123.6-0.17 123.01-0.12L123.01-0.12 118.25 0.1Q117.61 0.07 117.61-0.51ZM132.43-29.35L134.75-29.42Q135.31-34.79 135.48-34.97 135.65-35.16 136-35.18L136-35.18 140.66-35.35Q141.32-35.3 141.32-34.74L141.32-34.74Q140.85-32.03 140.54-29.54L140.54-29.54 146.23-29.74Q146.81-29.71 146.81-29.1L146.81-29.1 146.13-25.22Q146.03-24.63 145.52-24.61L145.52-24.61 139.93-24.39Q138.27-9.45 138.27-7.91L138.27-7.91Q138.27-5.05 140.71-5.05L140.71-5.05Q141.95-5.05 143.12-5.44 144.3-5.83 144.59-5.83L144.59-5.83Q145.1-5.83 145.1-5.2L145.1-5.2 144.59-0.93Q144.54-0.56 144.41-0.39 144.27-0.22 143.21 0.02 142.15 0.27 139.58 0.27L139.58 0.27Q135.82 0.27 134.02-1.48 132.21-3.22 132.21-6.69 132.21-10.16 134.14-24.32L134.14-24.32 131.75-24.22Q131.14-24.24 131.14-24.83L131.14-24.83 131.8-28.76Q131.87-29.32 132.43-29.35L132.43-29.35ZM158.05 0.27Q153.72 0.27 151.7-2.33 149.69-4.93 149.69-9.91L149.69-9.91Q149.69-12.23 150.2-15.97 150.71-19.7 151.15-21.4 151.59-23.1 152.4-24.72 153.21-26.34 154.3-27.39L154.3-27.39Q156.72-29.74 160.85-29.74L160.85-29.74Q166.71-29.74 168.44-25.44L168.44-25.44Q169.37-23.14 169.37-19.89 169.37-16.63 168.87-13.13 168.37-9.64 167.93-7.97 167.49-6.3 166.69-4.7 165.9-3.1 164.8-2.05L164.8-2.05Q162.38 0.27 158.05 0.27ZM162.36-10.42L162.36-10.42Q162.63-11.72 163.06-15.27 163.48-18.82 163.48-20.53L163.48-20.53Q163.48-24.68 160.48-24.68L160.48-24.68Q159.06-24.68 158.15-23.34 157.23-22 156.67-18.87L156.67-18.87Q155.55-12.52 155.55-8.57 155.55-4.61 158.53-4.61L158.53-4.61Q159.94-4.61 160.88-5.97 161.82-7.32 162.36-10.42ZM190.48-23.29L190.48-23.29 187.87-23.56Q184.7-23.56 182.55-22.29L182.55-22.29 180.13-0.76Q180.03-0.15 179.52-0.1L179.52-0.1 174.59 0.1Q174.05 0.05 174.05-0.37L174.05-0.37 177.27-28.76Q177.37-29.3 177.89-29.35L177.89-29.35 182.65-29.52Q183.31-29.49 183.31-28.88L183.31-28.88 183.01-26.37Q184.57-27.95 186.04-28.85 187.5-29.74 188.98-29.74 190.46-29.74 191.24-29.61L191.24-29.61Q191.75-29.52 191.75-28.93L191.75-28.93Q191.75-27.25 191.19-23.93L191.19-23.93Q191.07-23.29 190.48-23.29Z" opacity="1" transform="matrix(1,0,0,1,0,0)" fill="#000000" class="wordmark-text-0" data-fill-palette-color="quaternary" id="text-0"></path></svg></g></svg></g><g transform="matrix(1,0,0,1,0,53.92070405891603)"><svg viewBox="0 0 213.15844122715714 20.18032090328748" height="20.18032090328748" width="213.15844122715714"><g transform="matrix(1,0,0,1,0,0)"><svg width="213.15844122715714" viewBox="1.65 -36.25 531.243205127618 50.300000000000004" height="20.18032090328748" data-palette-color="#000000"><path d="M15.15 0.2Q13.7 0.2 11.8 0.05L11.8 0.05Q11.1 0 10.03-0.05 8.95-0.1 7.65-0.1L7.65-0.1 4.25-0.05Q3.35 0 1.75 0L1.75 0Q1.65 0 1.65-0.3 1.65-0.6 1.75-0.6L1.75-0.6Q3.65-0.6 4.53-0.85 5.4-1.1 5.73-1.83 6.05-2.55 6.05-4.05L6.05-4.05 6.05-27.2Q6.05-28.7 5.75-29.4 5.45-30.1 4.58-30.38 3.7-30.65 1.8-30.65L1.8-30.65Q1.7-30.65 1.7-30.95 1.7-31.25 1.8-31.25L1.8-31.25 4.3-31.2Q6.4-31.1 7.65-31.1L7.65-31.1Q9.55-31.1 11.4-31.25L11.4-31.25Q13.6-31.35 14.45-31.35L14.45-31.35Q19.65-31.35 23.65-29.35 27.65-27.35 29.88-23.9 32.1-20.45 32.1-16.15L32.1-16.15Q32.1-11.3 29.83-7.58 27.55-3.85 23.65-1.83 19.75 0.2 15.15 0.2L15.15 0.2ZM14.65-0.55Q18.65-0.55 21.75-2.23 24.85-3.9 26.58-7.18 28.3-10.45 28.3-15.05L28.3-15.05Q28.3-19.4 26.65-22.95 25-26.5 21.95-28.55 18.9-30.6 14.9-30.6L14.9-30.6Q12.75-30.6 11.58-30.35 10.4-30.1 9.85-29.35 9.3-28.6 9.3-27.1L9.3-27.1 9.3-4.6Q9.3-3.1 9.73-2.25 10.15-1.4 11.33-0.98 12.5-0.55 14.65-0.55L14.65-0.55ZM37.2 0Q37.1 0 37.1-0.3 37.1-0.6 37.2-0.6L37.2-0.6Q38.55-0.6 39.22-0.88 39.9-1.15 40.15-1.85 40.4-2.55 40.4-4.05L40.4-4.05 40.4-13.4Q40.4-15.2 40.02-16 39.65-16.8 38.75-16.8L38.75-16.8Q37.85-16.8 36.5-16.1L36.5-16.1 36.45-16.1Q36.25-16.1 36.15-16.35 36.05-16.6 36.2-16.7L36.2-16.7 42.7-19.7 42.9-19.75Q43-19.75 43.15-19.63 43.3-19.5 43.3-19.35L43.3-19.35Q43.3-19 43.25-17.35 43.2-15.7 43.2-13.45L43.2-13.45 43.2-4.05Q43.2-2.55 43.45-1.85 43.7-1.15 44.35-0.88 45-0.6 46.35-0.6L46.35-0.6Q46.5-0.6 46.5-0.3 46.5 0 46.35 0L46.35 0Q45.2 0 44.5-0.05L44.5-0.05 41.8-0.1 39.1-0.05Q38.4 0 37.2 0L37.2 0ZM41.4-25.6Q40.4-25.6 39.8-26.15 39.2-26.7 39.2-27.7L39.2-27.7Q39.2-28.7 39.8-29.25 40.4-29.8 41.4-29.8L41.4-29.8Q42.4-29.8 42.95-29.25 43.5-28.7 43.5-27.7L43.5-27.7Q43.5-26.7 42.95-26.15 42.4-25.6 41.4-25.6L41.4-25.6ZM53.2-16.25Q53.2-14.5 54.35-13.48 55.5-12.45 57.75-11.3L57.75-11.3Q59.5-10.4 60.47-9.75 61.45-9.1 62.15-8.05 62.85-7 62.85-5.5L62.85-5.5Q62.85-2.95 60.95-1.2 59.05 0.55 55.8 0.55L55.8 0.55Q53.15 0.55 51-0.95L51-0.95Q50.7-1.15 50.7-1.55L50.7-1.55 50.6-5.45Q50.6-5.6 50.87-5.63 51.15-5.65 51.2-5.5L51.2-5.5Q52.15-2.95 53.67-1.68 55.2-0.4 57.2-0.4L57.2-0.4Q58.75-0.4 59.62-1.13 60.5-1.85 60.5-3.3L60.5-3.3Q60.5-4.7 59.87-5.68 59.25-6.65 58.35-7.23 57.45-7.8 55.9-8.6L55.9-8.6Q54.25-9.4 53.27-10.05 52.3-10.7 51.62-11.75 50.95-12.8 50.95-14.35L50.95-14.35Q50.95-17.05 52.97-18.48 55-19.9 57.75-19.9L57.75-19.9Q59.75-19.9 61.4-19.15L61.4-19.15Q61.7-19.05 61.77-18.93 61.85-18.8 61.85-18.6L61.85-18.6Q61.85-17.6 61.8-17.05L61.8-17.05 61.75-14.95Q61.75-14.85 61.45-14.85 61.15-14.85 61.15-14.95L61.15-14.95Q61.15-16.55 59.47-17.75 57.8-18.95 55.95-18.95L55.95-18.95Q54.65-18.95 53.92-18.28 53.2-17.6 53.2-16.25L53.2-16.25ZM76.64 0.6Q73.39 0.6 71.19-0.83 68.99-2.25 67.94-4.5 66.89-6.75 66.89-9.25L66.89-9.25Q66.89-12.45 68.49-14.83 70.09-17.2 72.62-18.48 75.14-19.75 77.79-19.75L77.79-19.75Q79.99-19.75 81.82-18.88 83.64-18 83.64-16.7L83.64-16.7Q83.64-16.05 83.17-15.58 82.69-15.1 81.89-15.1L81.89-15.1Q80.54-15.1 79.69-16.75L79.69-16.75Q79.04-17.75 78.29-18.25 77.54-18.75 76.14-18.75L76.14-18.75Q73.34-18.75 71.77-16.57 70.19-14.4 70.19-10.75L70.19-10.75Q70.19-6.55 72.29-3.85 74.39-1.15 78.59-1.15L78.59-1.15Q81.64-1.15 83.69-2.8L83.69-2.8 83.74-2.8Q83.89-2.8 84.02-2.65 84.14-2.5 84.04-2.4L84.04-2.4Q82.29-0.85 80.52-0.13 78.74 0.6 76.64 0.6L76.64 0.6ZM96.89 0.65Q93.99 0.65 91.77-0.78 89.54-2.2 88.34-4.63 87.14-7.05 87.14-9.9L87.14-9.9Q87.14-13.15 88.72-15.43 90.29-17.7 92.77-18.82 95.24-19.95 97.79-19.95L97.79-19.95Q100.74-19.95 102.94-18.5 105.14-17.05 106.32-14.68 107.49-12.3 107.49-9.65L107.49-9.65Q107.49-6.55 106.04-4.23 104.59-1.9 102.17-0.63 99.74 0.65 96.89 0.65L96.89 0.65ZM98.34-0.3Q101.09-0.3 102.59-2.25 104.09-4.2 104.09-8.25L104.09-8.25Q104.09-11.35 103.07-13.8 102.04-16.25 100.24-17.63 98.44-19 96.14-19L96.14-19Q93.44-19 91.97-17.05 90.49-15.1 90.49-11.45L90.49-11.45Q90.49-8.4 91.49-5.85 92.49-3.3 94.29-1.8 96.09-0.3 98.34-0.3L98.34-0.3ZM130.84-19.3Q130.94-19.3 130.94-19 130.94-18.7 130.84-18.7L130.84-18.7Q129.54-18.7 128.66-17.9 127.79-17.1 126.99-15.05L126.99-15.05 120.74-0.05Q120.64 0.2 120.19 0.2L120.19 0.2Q119.74 0.2 119.64-0.05L119.64-0.05 112.64-15.15Q111.64-17.3 110.96-18 110.29-18.7 109.29-18.7L109.29-18.7Q109.14-18.7 109.14-19 109.14-19.3 109.29-19.3L109.29-19.3Q110.29-19.3 110.84-19.25L110.84-19.25 112.74-19.2 115.99-19.25Q116.74-19.3 117.99-19.3L117.99-19.3Q118.14-19.3 118.14-19 118.14-18.7 117.99-18.7L117.99-18.7Q114.99-18.7 114.99-17.5L114.99-17.5Q114.99-17.15 115.19-16.75L115.19-16.75 121.59-3.15 120.14-1.1 125.99-15.3Q126.34-16.25 126.34-16.75L126.34-16.75Q126.34-17.75 125.39-18.23 124.44-18.7 122.39-18.7L122.39-18.7Q122.29-18.7 122.29-19 122.29-19.3 122.39-19.3L122.39-19.3Q123.74-19.3 124.44-19.25L124.44-19.25 127.44-19.2 129.19-19.25Q129.69-19.3 130.84-19.3L130.84-19.3ZM141.94 0.6Q139.04 0.6 136.99-0.75 134.94-2.1 133.86-4.3 132.79-6.5 132.79-9L132.79-9Q132.79-11.95 134.19-14.43 135.59-16.9 138.01-18.32 140.44-19.75 143.34-19.75L143.34-19.75Q146.14-19.75 147.64-18.25 149.14-16.75 149.14-14.05L149.14-14.05Q149.14-13.35 149.01-13.05 148.89-12.75 148.54-12.75L148.54-12.75 145.74-12.75 145.79-13.65Q145.79-16.15 144.69-17.45 143.59-18.75 141.69-18.75L141.69-18.75Q139.04-18.75 137.56-16.65 136.09-14.55 136.09-10.9L136.09-10.9Q136.09-6.55 138.14-3.85 140.19-1.15 143.89-1.15L143.89-1.15Q145.39-1.15 146.46-1.55 147.54-1.95 148.89-2.8L148.89-2.8 148.94-2.8Q149.09-2.8 149.21-2.63 149.34-2.45 149.24-2.3L149.24-2.3Q145.84 0.6 141.94 0.6L141.94 0.6ZM135.19-12.7L135.14-13.35 146.49-13.55 146.49-12.75 135.19-12.7ZM158.33-14.1Q160.98-17.4 162.43-18.57 163.88-19.75 165.13-19.75L165.13-19.75Q166.23-19.75 167.23-19.15 168.23-18.55 168.23-17.7L168.23-17.7Q168.23-17.05 167.78-16.6 167.33-16.15 166.58-16.15L166.58-16.15Q166.13-16.15 165.81-16.32 165.48-16.5 165.03-16.85L165.03-16.85Q164.58-17.25 164.18-17.45 163.78-17.65 163.23-17.65L163.23-17.65Q162.48-17.65 161.58-16.9 160.68-16.15 158.53-13.55L158.53-13.55 158.33-14.1ZM153.63 0Q153.48 0 153.48-0.3 153.48-0.6 153.63-0.6L153.63-0.6Q154.98-0.6 155.63-0.88 156.28-1.15 156.51-1.85 156.73-2.55 156.73-4.05L156.73-4.05 156.73-13.95Q156.73-15.65 156.33-16.4 155.93-17.15 154.98-17.15L154.98-17.15Q154.18-17.15 152.28-16.4L152.28-16.4 152.18-16.4Q151.98-16.4 151.91-16.63 151.83-16.85 152.03-16.95L152.03-16.95 157.83-19.7Q157.93-19.75 158.13-19.75L158.13-19.75Q158.58-19.75 159.08-18.6 159.58-17.45 159.58-15.65L159.58-15.65 159.58-4.05Q159.58-2.55 159.96-1.85 160.33-1.15 161.33-0.88 162.33-0.6 164.43-0.6L164.43-0.6Q164.63-0.6 164.63-0.3 164.63 0 164.43 0L164.43 0Q162.83 0 161.88-0.05L161.88-0.05 158.18-0.1 155.43-0.05Q154.78 0 153.63 0L153.63 0ZM195.28-31.25Q195.38-31.25 195.38-30.95 195.38-30.65 195.28-30.65L195.28-30.65Q193.63-30.65 192.88-30.35 192.13-30.05 191.85-29.33 191.58-28.6 191.58-27.1L191.58-27.1 191.58 1.4Q191.58 6.35 189.28 9.28 186.98 12.2 182.63 12.2L182.63 12.2Q180.93 12.2 179.95 11.63 178.98 11.05 178.98 10.05L178.98 10.05Q178.98 9.3 179.43 8.85 179.88 8.4 180.68 8.4L180.68 8.4Q181.53 8.4 181.98 8.78 182.43 9.15 182.93 9.9L182.93 9.9Q183.38 10.6 183.73 10.9 184.08 11.2 184.73 11.2L184.73 11.2Q186.53 11.2 187.4 9.13 188.28 7.05 188.28 2.45L188.28 2.45 188.28-27.2Q188.28-28.7 187.93-29.4 187.58-30.1 186.55-30.38 185.53-30.65 183.38-30.65L183.38-30.65Q183.28-30.65 183.28-30.95 183.28-31.25 183.38-31.25L183.38-31.25 186.28-31.2Q188.58-31.1 189.88-31.1L189.88-31.1Q191.18-31.1 193.08-31.2L193.08-31.2 195.28-31.25ZM208.03 0.65Q205.13 0.65 202.9-0.78 200.67-2.2 199.47-4.63 198.28-7.05 198.28-9.9L198.28-9.9Q198.28-13.15 199.85-15.43 201.42-17.7 203.9-18.82 206.38-19.95 208.92-19.95L208.92-19.95Q211.88-19.95 214.07-18.5 216.28-17.05 217.45-14.68 218.63-12.3 218.63-9.65L218.63-9.65Q218.63-6.55 217.18-4.23 215.72-1.9 213.3-0.63 210.88 0.65 208.03 0.65L208.03 0.65ZM209.47-0.3Q212.22-0.3 213.72-2.25 215.22-4.2 215.22-8.25L215.22-8.25Q215.22-11.35 214.2-13.8 213.17-16.25 211.38-17.63 209.57-19 207.28-19L207.28-19Q204.57-19 203.1-17.05 201.63-15.1 201.63-11.45L201.63-11.45Q201.63-8.4 202.63-5.85 203.63-3.3 205.42-1.8 207.22-0.3 209.47-0.3L209.47-0.3ZM227.52-7.4Q227.52-4.45 228.55-3.05 229.57-1.65 231.67-1.65L231.67-1.65Q233.62-1.65 235.6-2.78 237.57-3.9 238.97-5.85L238.97-5.85 239.22-5.3Q236.92-2.35 234.67-0.98 232.42 0.4 230.02 0.4L230.02 0.4Q227.47 0.4 226.1-1.18 224.72-2.75 224.72-5.75L224.72-5.75 224.72-13.4Q224.72-15.35 224.37-16.23 224.02-17.1 223.22-17.1L223.22-17.1Q222.52-17.1 221.52-16.6L221.52-16.6 221.47-16.6Q221.27-16.6 221.17-16.85 221.07-17.1 221.27-17.2L221.27-17.2 226.82-19.7 226.97-19.75Q227.12-19.75 227.32-19.63 227.52-19.5 227.52-19.35L227.52-19.35 227.52-7.4ZM240.82 3.5Q240.82 8.25 238.22 11.15 235.62 14.05 230.82 14.05L230.82 14.05Q228.07 14.05 226.17 12.95 224.27 11.85 224.27 10.2L224.27 10.2Q224.27 9.45 224.72 9.05 225.17 8.65 225.87 8.65L225.87 8.65Q226.52 8.65 226.97 9.03 227.42 9.4 228.02 10.25L228.02 10.25Q228.97 11.55 230 12.28 231.02 13 232.97 13L232.97 13Q235.27 13 236.65 11.2 238.02 9.4 238.02 4.7L238.02 4.7 238.02-13.4Q238.02-15.35 237.67-16.23 237.32-17.1 236.52-17.1L236.52-17.1Q235.87-17.1 234.87-16.6L234.87-16.6 234.82-16.6Q234.62-16.6 234.5-16.85 234.37-17.1 234.57-17.2L234.57-17.2 240.12-19.7 240.32-19.75Q240.47-19.75 240.65-19.63 240.82-19.5 240.82-19.35L240.82-19.35 240.82 3.5ZM259.02 0Q258.92 0 258.92-0.3 258.92-0.6 259.02-0.6L259.02-0.6Q260.37-0.6 261.04-0.88 261.72-1.15 261.97-1.85 262.22-2.55 262.22-4.05L262.22-4.05 262.22-13.4Q262.22-15.2 261.84-16 261.47-16.8 260.57-16.8L260.57-16.8Q259.67-16.8 258.32-16.1L258.32-16.1 258.27-16.1Q258.07-16.1 257.97-16.35 257.87-16.6 258.02-16.7L258.02-16.7 264.52-19.7 264.72-19.75Q264.82-19.75 264.97-19.63 265.12-19.5 265.12-19.35L265.12-19.35Q265.12-19 265.07-17.35 265.02-15.7 265.02-13.45L265.02-13.45 265.02-4.05Q265.02-2.55 265.27-1.85 265.52-1.15 266.17-0.88 266.82-0.6 268.17-0.6L268.17-0.6Q268.32-0.6 268.32-0.3 268.32 0 268.17 0L268.17 0Q267.02 0 266.32-0.05L266.32-0.05 263.62-0.1 260.92-0.05Q260.22 0 259.02 0L259.02 0ZM263.22-25.6Q262.22-25.6 261.62-26.15 261.02-26.7 261.02-27.7L261.02-27.7Q261.02-28.7 261.62-29.25 262.22-29.8 263.22-29.8L263.22-29.8Q264.22-29.8 264.77-29.25 265.32-28.7 265.32-27.7L265.32-27.7Q265.32-26.7 264.77-26.15 264.22-25.6 263.22-25.6L263.22-25.6ZM285.71 0Q285.56 0 285.56-0.3 285.56-0.6 285.71-0.6L285.71-0.6Q287.06-0.6 287.71-0.88 288.37-1.15 288.59-1.85 288.81-2.55 288.81-4.05L288.81-4.05 288.81-12.15Q288.81-15.15 287.69-16.53 286.56-17.9 284.21-17.9L284.21-17.9Q282.37-17.9 280.49-16.75 278.62-15.6 277.26-13.6L277.26-13.6 277.06-14.2Q279.26-17.15 281.41-18.55 283.56-19.95 285.87-19.95L285.87-19.95Q288.62-19.95 290.14-18.38 291.66-16.8 291.66-13.85L291.66-13.85 291.66-4.05Q291.66-2.55 291.89-1.85 292.12-1.15 292.76-0.88 293.41-0.6 294.76-0.6L294.76-0.6Q294.91-0.6 294.91-0.3 294.91 0 294.76 0L294.76 0Q293.62 0 292.96-0.05L292.96-0.05 290.26-0.1 287.51-0.05Q286.87 0 285.71 0L285.71 0ZM272.26 0Q272.12 0 272.12-0.3 272.12-0.6 272.26-0.6L272.26-0.6Q273.62-0.6 274.26-0.88 274.91-1.15 275.14-1.85 275.37-2.55 275.37-4.05L275.37-4.05 275.37-13.95Q275.37-15.65 274.96-16.4 274.56-17.15 273.62-17.15L273.62-17.15Q272.81-17.15 270.91-16.4L270.91-16.4 270.81-16.4Q270.62-16.4 270.54-16.63 270.46-16.85 270.66-16.95L270.66-16.95 276.46-19.7Q276.56-19.75 276.76-19.75L276.76-19.75Q277.21-19.75 277.71-18.6 278.21-17.45 278.21-15.65L278.21-15.65 278.21-4.05Q278.21-2.55 278.44-1.85 278.66-1.15 279.31-0.88 279.96-0.6 281.31-0.6L281.31-0.6Q281.46-0.6 281.46-0.3 281.46 0 281.31 0L281.31 0Q280.16 0 279.51-0.05L279.51-0.05 276.81-0.1 274.06-0.05Q273.41 0 272.26 0L272.26 0ZM313.61-27.2Q313.61-28.7 313.31-29.4 313.01-30.1 312.13-30.38 311.26-30.65 309.36-30.65L309.36-30.65Q309.26-30.65 309.26-30.95 309.26-31.25 309.36-31.25L309.36-31.25 311.86-31.2Q313.96-31.1 315.21-31.1L315.21-31.1Q316.66-31.1 318.76-31.2L318.76-31.2 321.11-31.25Q321.26-31.25 321.26-30.95 321.26-30.65 321.11-30.65L321.11-30.65Q319.26-30.65 318.38-30.35 317.51-30.05 317.19-29.33 316.86-28.6 316.86-27.1L316.86-27.1 316.86-4.05Q316.86-2.5 317.16-1.8 317.46-1.1 318.33-0.85 319.21-0.6 321.11-0.6L321.11-0.6Q321.26-0.6 321.26-0.3 321.26 0 321.11 0L321.11 0Q319.61 0 318.71-0.05L318.71-0.05 315.21-0.1 311.81-0.05Q310.91 0 309.31 0L309.31 0Q309.21 0 309.21-0.3 309.21-0.6 309.31-0.6L309.31-0.6Q311.21-0.6 312.08-0.85 312.96-1.1 313.29-1.83 313.61-2.55 313.61-4.05L313.61-4.05 313.61-27.2ZM326.16-7.25L318.21-17.25 320.71-19.25 328.01-9.95Q331.66-5.2 333.58-3.25 335.51-1.3 336.56-0.95 337.61-0.6 339.61-0.6L339.61-0.6Q339.76-0.6 339.76-0.3 339.76 0 339.61 0L339.61 0 334.01 0Q333.61 0 332.58 0.03 331.56 0.05 329.71-2.53 327.86-5.1 326.16-7.25L326.16-7.25ZM327.56-27.2Q329.21-28.85 329.21-29.65L329.21-29.65Q329.21-30.65 326.26-30.65L326.26-30.65Q326.16-30.65 326.16-30.95 326.16-31.25 326.26-31.25L326.26-31.25 328.41-31.2Q330.41-31.1 332.06-31.1L332.06-31.1Q333.71-31.1 335.51-31.2L335.51-31.2 337.36-31.25Q337.51-31.25 337.51-30.95 337.51-30.65 337.36-30.65L337.36-30.65Q335.31-30.65 333.01-29.75 330.71-28.85 328.71-26.9L328.71-26.9 315.91-14.35 314.66-14.35 327.56-27.2ZM354.61 0Q354.46 0 354.46-0.3 354.46-0.6 354.61-0.6L354.61-0.6Q355.96-0.6 356.61-0.88 357.26-1.15 357.48-1.85 357.71-2.55 357.71-4.05L357.71-4.05 357.71-12.15Q357.71-15.15 356.58-16.53 355.46-17.9 353.11-17.9L353.11-17.9Q351.26-17.9 349.38-16.75 347.51-15.6 346.16-13.6L346.16-13.6 345.96-14.2Q348.16-17.15 350.31-18.55 352.46-19.95 354.76-19.95L354.76-19.95Q357.51-19.95 359.03-18.38 360.56-16.8 360.56-13.85L360.56-13.85 360.56-4.05Q360.56-2.55 360.78-1.85 361.01-1.15 361.66-0.88 362.31-0.6 363.66-0.6L363.66-0.6Q363.81-0.6 363.81-0.3 363.81 0 363.66 0L363.66 0Q362.51 0 361.86-0.05L361.86-0.05 359.16-0.1 356.41-0.05Q355.76 0 354.61 0L354.61 0ZM341.16 0Q341.01 0 341.01-0.3 341.01-0.6 341.16-0.6L341.16-0.6Q342.51-0.6 343.16-0.88 343.81-1.15 344.03-1.85 344.26-2.55 344.26-4.05L344.26-4.05 344.26-13.95Q344.26-15.65 343.86-16.4 343.46-17.15 342.51-17.15L342.51-17.15Q341.71-17.15 339.81-16.4L339.81-16.4 339.71-16.4Q339.51-16.4 339.43-16.63 339.36-16.85 339.56-16.95L339.56-16.95 345.36-19.7Q345.46-19.75 345.66-19.75L345.66-19.75Q346.11-19.75 346.61-18.6 347.11-17.45 347.11-15.65L347.11-15.65 347.11-4.05Q347.11-2.55 347.33-1.85 347.56-1.15 348.21-0.88 348.86-0.6 350.21-0.6L350.21-0.6Q350.36-0.6 350.36-0.3 350.36 0 350.21 0L350.21 0Q349.06 0 348.41-0.05L348.41-0.05 345.71-0.1 342.96-0.05Q342.31 0 341.16 0L341.16 0ZM376.31 0.65Q373.41 0.65 371.18-0.78 368.96-2.2 367.76-4.63 366.56-7.05 366.56-9.9L366.56-9.9Q366.56-13.15 368.13-15.43 369.71-17.7 372.18-18.82 374.66-19.95 377.21-19.95L377.21-19.95Q380.16-19.95 382.36-18.5 384.56-17.05 385.73-14.68 386.91-12.3 386.91-9.65L386.91-9.65Q386.91-6.55 385.46-4.23 384.01-1.9 381.58-0.63 379.16 0.65 376.31 0.65L376.31 0.65ZM377.76-0.3Q380.51-0.3 382.01-2.25 383.51-4.2 383.51-8.25L383.51-8.25Q383.51-11.35 382.48-13.8 381.46-16.25 379.66-17.63 377.86-19 375.56-19L375.56-19Q372.86-19 371.38-17.05 369.91-15.1 369.91-11.45L369.91-11.45Q369.91-8.4 370.91-5.85 371.91-3.3 373.71-1.8 375.51-0.3 377.76-0.3L377.76-0.3ZM392.05-15.15Q391.15-17.3 390.43-18 389.7-18.7 388.7-18.7L388.7-18.7Q388.55-18.7 388.55-19 388.55-19.3 388.7-19.3L388.7-19.3Q389.7-19.3 390.25-19.25L390.25-19.25 392.15-19.2 395.15-19.25Q395.9-19.3 397.3-19.3L397.3-19.3Q397.45-19.3 397.45-19 397.45-18.7 397.3-18.7L397.3-18.7Q395.9-18.7 395.15-18.43 394.4-18.15 394.4-17.5L394.4-17.5Q394.4-17.15 394.6-16.75L394.6-16.75 400.25-3.1 398.75-1.25 405-19.3Q405.15-19.5 405.6-19.5L405.6-19.5Q406.1-19.5 406.15-19.3L406.15-19.3 413.25-3.1 411.85-1.1 417.1-15.3Q417.4-16.15 417.4-16.75L417.4-16.75Q417.4-17.75 416.48-18.23 415.55-18.7 413.5-18.7L413.5-18.7Q413.4-18.7 413.4-19 413.4-19.3 413.5-19.3L413.5-19.3Q414.85-19.3 415.55-19.25L415.55-19.25 418.55-19.2 420.35-19.25Q420.85-19.3 421.9-19.3L421.9-19.3Q422.05-19.3 422.05-19 422.05-18.7 421.9-18.7L421.9-18.7Q420.65-18.7 419.75-17.9 418.85-17.1 418.1-15.05L418.1-15.05 412.45-0.05Q412.45 0.15 411.9 0.15L411.9 0.15Q411.45 0.15 411.3-0.05L411.3-0.05 404.15-16.25 405.65-18.1 399.4-0.05Q399.35 0.15 398.85 0.15L398.85 0.15Q398.4 0.15 398.25-0.05L398.25-0.05 392.05-15.15ZM424.15 0Q424 0 424-0.3 424-0.6 424.15-0.6L424.15-0.6Q425.5-0.6 426.15-0.88 426.8-1.15 427.05-1.88 427.3-2.6 427.3-4.05L427.3-4.05 427.3-29.9Q427.3-31.7 426.95-32.5 426.6-33.3 425.7-33.3L425.7-33.3Q424.95-33.3 423.4-32.6L423.4-32.6 423.3-32.6Q423.15-32.6 423.08-32.85 423-33.1 423.15-33.15L423.15-33.15 429.55-36.2Q429.65-36.25 429.8-36.25L429.8-36.25Q429.95-36.25 430.1-36.13 430.25-36 430.25-35.85L430.25-35.85 430.25-4.05Q430.25-2.6 430.48-1.9 430.7-1.2 431.35-0.9 432-0.6 433.35-0.6L433.35-0.6Q433.5-0.6 433.5-0.3 433.5 0 433.35 0L433.35 0Q432.25 0 431.55-0.05L431.55-0.05 428.75-0.1 426.05-0.05Q425.35 0 424.15 0L424.15 0ZM446 0.6Q443.1 0.6 441.05-0.75 439-2.1 437.92-4.3 436.85-6.5 436.85-9L436.85-9Q436.85-11.95 438.25-14.43 439.65-16.9 442.07-18.32 444.5-19.75 447.4-19.75L447.4-19.75Q450.2-19.75 451.7-18.25 453.2-16.75 453.2-14.05L453.2-14.05Q453.2-13.35 453.07-13.05 452.95-12.75 452.6-12.75L452.6-12.75 449.8-12.75 449.85-13.65Q449.85-16.15 448.75-17.45 447.65-18.75 445.75-18.75L445.75-18.75Q443.1-18.75 441.62-16.65 440.15-14.55 440.15-10.9L440.15-10.9Q440.15-6.55 442.2-3.85 444.25-1.15 447.95-1.15L447.95-1.15Q449.45-1.15 450.52-1.55 451.6-1.95 452.95-2.8L452.95-2.8 453-2.8Q453.15-2.8 453.27-2.63 453.4-2.45 453.3-2.3L453.3-2.3Q449.9 0.6 446 0.6L446 0.6ZM439.25-12.7L439.2-13.35 450.55-13.55 450.55-12.75 439.25-12.7ZM464.75 0.65Q462.64 0.65 460.87-0.55 459.09-1.75 458.02-3.93 456.94-6.1 456.94-8.9L456.94-8.9Q456.94-12.45 458.69-14.95 460.44-17.45 463.09-18.7 465.75-19.95 468.34-19.95L468.34-19.95Q471.79-19.95 474.44-17.7L474.44-17.7 473.89-14.35Q472.54-16.55 470.94-17.75 469.34-18.95 467-18.95L467-18.95Q463.84-18.95 462.02-16.73 460.19-14.5 460.19-10.4L460.19-10.4Q460.19-7.65 461.04-5.55 461.89-3.45 463.37-2.3 464.84-1.15 466.69-1.15L466.69-1.15Q468.75-1.15 470.44-2.25 472.14-3.35 474-5.4L474-5.4 474.39-5.05Q472.09-2.45 469.89-0.9 467.69 0.65 464.75 0.65L464.75 0.65ZM475.94-5.5Q475.94-3.7 476.37-2.9 476.79-2.1 477.75-2.1L477.75-2.1Q479.19-2.1 480.34-2.8L480.34-2.8 480.44-2.85Q480.64-2.85 480.72-2.6 480.79-2.35 480.64-2.25L480.64-2.25 475.14 0.35Q474.94 0.45 474.75 0.45L474.75 0.45Q474.09 0.45 473.62-0.75 473.14-1.95 473.14-4.05L473.14-4.05 473.14-29.85Q473.14-31.65 472.77-32.45 472.39-33.25 471.5-33.25L471.5-33.25Q470.84-33.25 469.19-32.55L469.19-32.55 469.09-32.55Q468.89-32.55 468.82-32.77 468.75-33 468.89-33.1L468.89-33.1 475.25-36.2Q475.34-36.25 475.5-36.25L475.5-36.25Q475.64-36.25 475.79-36.13 475.94-36 475.94-35.85L475.94-35.85 475.94-5.5ZM490.44 14.05Q487.44 14.05 485.54 12.98 483.64 11.9 483.64 10.3L483.64 10.3Q483.64 9.45 484.09 9.05 484.54 8.65 485.14 8.65L485.14 8.65Q485.84 8.65 486.29 9.03 486.74 9.4 487.39 10.25L487.39 10.25Q488.34 11.55 489.34 12.28 490.34 13 492.34 13L492.34 13Q494.74 13 496.19 11.25 497.64 9.5 497.64 4.7L497.64 4.7 497.64-18.05Q498.64-18.45 499.09-18.75 499.54-19.05 499.94-19.75L499.94-19.75Q499.99-19.85 500.19-19.78 500.39-19.7 500.39-19.6L500.39-19.6 500.39 3.5Q500.39 8.3 497.77 11.18 495.14 14.05 490.44 14.05L490.44 14.05ZM489.74 0.5Q486.69 0.5 484.62-1.75 482.54-4 482.54-8.05L482.54-8.05Q482.54-11.65 484.24-14.35 485.94-17.05 488.52-18.5 491.09-19.95 493.69-19.95L493.69-19.95Q495.44-19.95 497.04-19.3 498.64-18.65 499.64-17.5L499.64-17.5 497.64-14.7Q497.64-16.55 496.04-17.75 494.44-18.95 492.44-18.95L492.44-18.95Q489.49-18.95 487.67-16.32 485.84-13.7 485.84-9.5L485.84-9.5Q485.84-5.75 487.37-3.45 488.89-1.15 491.44-1.15L491.44-1.15Q493.34-1.15 495.02-2.33 496.69-3.5 498.44-5.35L498.44-5.35 498.84-5Q496.64-2.5 494.52-1 492.39 0.5 489.74 0.5L489.74 0.5ZM514.99 0.6Q512.09 0.6 510.04-0.75 507.99-2.1 506.92-4.3 505.84-6.5 505.84-9L505.84-9Q505.84-11.95 507.24-14.43 508.64-16.9 511.06-18.32 513.49-19.75 516.39-19.75L516.39-19.75Q519.19-19.75 520.69-18.25 522.19-16.75 522.19-14.05L522.19-14.05Q522.19-13.35 522.07-13.05 521.94-12.75 521.59-12.75L521.59-12.75 518.79-12.75 518.84-13.65Q518.84-16.15 517.74-17.45 516.64-18.75 514.74-18.75L514.74-18.75Q512.09-18.75 510.62-16.65 509.14-14.55 509.14-10.9L509.14-10.9Q509.14-6.55 511.19-3.85 513.24-1.15 516.94-1.15L516.94-1.15Q518.44-1.15 519.51-1.55 520.59-1.95 521.94-2.8L521.94-2.8 521.99-2.8Q522.14-2.8 522.26-2.63 522.39-2.45 522.29-2.3L522.29-2.3Q518.89 0.6 514.99 0.6L514.99 0.6ZM508.24-12.7L508.19-13.35 519.54-13.55 519.54-12.75 508.24-12.7ZM528.34-31Q528.29-31.2 529.04-31.33 529.79-31.45 530.64-31.45L530.64-31.45Q531.49-31.45 532.21-31.33 532.94-31.2 532.89-31L532.89-31Q532.09-26.7 531.69-21.8 531.29-16.9 530.89-9.45L530.89-9.45Q530.89-9.3 530.54-9.3L530.54-9.3Q530.14-9.3 530.14-9.45L530.14-9.45Q529.89-16.25 529.51-21.45 529.14-26.65 528.34-31L528.34-31ZM530.39 0.55Q529.39 0.55 528.79-0.05 528.19-0.65 528.19-1.6L528.19-1.6Q528.19-2.55 528.79-3.13 529.39-3.7 530.39-3.7L530.39-3.7Q531.44-3.7 531.99-3.15 532.54-2.6 532.54-1.6L532.54-1.6Q532.54-0.6 531.99-0.03 531.44 0.55 530.39 0.55L530.39 0.55Z" opacity="1" transform="matrix(1,0,0,1,0,0)" fill="#000000" class="slogan-text-1" data-fill-palette-color="quaternary" id="text-1"></path></svg></g></svg></g></svg></g></svg></g><g transform="matrix(1,0,0,1,40.71326227438702,0)"><svg viewBox="0 0 131.7319166783831 67.89298320708018" height="67.89298320708018" width="131.7319166783831"><g><svg xmlns="http://www.w3.org/2000/svg" xmlns:xlink="http://www.w3.org/1999/xlink" version="1.1" x="0" y="0" viewBox="8 27.384999999999994 80 41.23100000000001" enable-background="new 0 0 96 96" xml:space="preserve" height="67.89298320708018" width="131.7319166783831" class="icon-icon-0" data-fill-palette-color="quaternary" id="icon-0"><g fill="#000000" data-fill-palette-color="quaternary"><circle cx="69.898" cy="31.511" r="4.1" fill="#000000" data-fill-palette-color="quaternary"></circle><path d="M85.461 37.1V54.364H80.231C80.502 54.222 80.776 54.087 81.045 53.988A3.56 3.56 0 0 0 83.171 49.427L78.743 37.26A3.56 3.56 0 0 0 74.181 35.134 3.54 3.54 0 0 0 71.888 38.013L65.129 41.201 65.583 40 64.909 39.747 64.197 41.642 63.968 41.75A1.85 1.85 0 0 0 63.083 44.215C63.107 44.27 63.143 44.316 63.173 44.365L63.178 46.396 63.721 44.95A1.84 1.84 0 0 0 65.548 45.097L72.781 41.684 75.506 49.169H71.152A2.204 2.204 0 0 0 68.945 51.373V65.66C68.945 67.29 70.015 68.613 71.334 68.613S73.721 67.29 73.721 65.66V54.824H75.02V68.614H77.742V56.902H85.241V68.615H87.963V56.902H88V37.1z" fill="#000000" data-fill-palette-color="quaternary"></path><path d="M58.529 48.129H65.304C65.888 48.129 66.347 47.832 66.347 47.453S65.888 46.776 65.304 46.776H58.529C57.943 46.776 57.486 47.073 57.486 47.453 57.486 47.832 57.943 48.129 58.529 48.129" fill="#000000" data-fill-palette-color="quaternary"></path><polygon points="66.669,48.422 63.006,48.422 62.971,48.422 33.03,48.422 32.995,48.422 29.331,48.422 29.317,48.422    29.295,48.422 29.295,52.977 29.295,68.613 29.331,68.613 32.995,68.613 33.03,68.613 33.03,52.977 62.971,52.977 62.971,68.613    63.006,68.613 66.669,68.613 66.705,68.613 66.705,52.977 66.705,48.422 66.684,48.422  " fill="#000000" data-fill-palette-color="quaternary"></polygon><circle cx="26.102" cy="31.511" r="4.1" fill="#000000" data-fill-palette-color="quaternary"></circle><path d="M24.848 49.17H20.494L23.22 41.685 30.453 45.098A1.84 1.84 0 0 0 32.28 44.951L32.823 46.397 32.827 44.366C32.858 44.316 32.892 44.27 32.918 44.216A1.85 1.85 0 0 0 32.033 41.751L31.804 41.643 31.092 39.748 30.417 40 30.869 41.201 24.112 38.013C23.943 36.742 23.106 35.602 21.818 35.134A3.56 3.56 0 0 0 17.257 37.26L12.829 49.428A3.56 3.56 0 0 0 14.955 53.989C15.225 54.088 15.497 54.223 15.77 54.365H10.54V37.1H8V56.904H8.04V68.616H10.761V56.902H18.26V68.614H20.981V54.824H22.279V65.66C22.279 67.29 23.348 68.613 24.666 68.613S27.053 67.29 27.053 65.66V51.374A2.2 2.2 0 0 0 24.848 49.17" fill="#000000" data-fill-palette-color="quaternary"></path><path d="M29.652 47.453C29.652 47.832 30.11 48.129 30.695 48.129H37.47C38.055 48.129 38.513 47.832 38.513 47.453S38.055 46.776 37.47 46.776H30.695C30.11 46.776 29.652 47.073 29.652 47.453" fill="#000000" data-fill-palette-color="quaternary"></path></g></svg></g></svg></g><g></g></svg></g></svg></g></svg></g></svg></g><defs></defs><mask id="347a098e-d05e-4549-8880-59b4790dead4"><g id="SvgjsG1969"><svg viewBox="0 0 342.8515585177538 342.8515585177538" height="342.8515585177538" width="342.8515585177538"><g><svg></svg></g><g><svg viewBox="0 0 342.8515585177538 342.8515585177538" height="342.8515585177538" width="342.8515585177538"><g><path d="M0 171.426c0-94.676 76.75-171.426 171.426-171.426 94.676 0 171.426 76.75 171.426 171.426 0 94.676-76.75 171.426-171.426 171.426-94.676 0-171.426-76.75-171.426-171.426zM171.426 338.918c92.503 0 167.492-74.989 167.492-167.492 0-92.503-74.989-167.492-167.492-167.492-92.503 0-167.492 74.989-167.492 167.492 0 92.503 74.989 167.492 167.492 167.492z" fill="white" stroke="transparent"></path><ellipse rx="164.56874808852183" ry="164.56874808852183" cx="171.4257792588769" cy="171.4257792588769" fill="white" stroke="transparent" stroke-width="0" fill-opacity="1"></ellipse></g><g transform="matrix(1,0,0,1,64.84655864529836,95.2796645485888)"><svg viewBox="0 0 213.15844122715708 152.2922294205762" height="152.2922294205762" width="213.15844122715708"><g><svg viewBox="0 0 213.15844122715708 152.2922294205762" height="152.2922294205762" width="213.15844122715708"><g><svg viewBox="0 0 213.15844122715714 152.29222942057623" height="152.2922294205762" width="213.15844122715708"><g transform="matrix(1,0,0,1,0,78.19120445837271)"><svg viewBox="0 0 213.15844122715714 74.10102496220351" height="74.10102496220351" width="213.15844122715714"><g id="SvgjsG1968"><svg viewBox="0 0 213.15844122715714 74.10102496220351" height="74.10102496220351" width="213.15844122715714" id="SvgjsSvg1967"><g><svg viewBox="0 0 213.15844122715714 43.622482807623506" height="43.622482807623506" width="213.15844122715714"><g transform="matrix(1,0,0,1,0,0)"><svg width="213.15844122715714" viewBox="2.69 -38.43 189.06 38.7" height="43.622482807623506" data-palette-color="#000000"><path d="M18.46-16.46L18.46-16.46 10.64-16.19 8.89-0.78Q8.79-0.22 8.25-0.17L8.25-0.17 3.22 0.1Q2.69 0.1 2.69-0.37L2.69-0.37 6.93-37.3Q7.03-37.82 7.57-37.87L7.57-37.87 20.95-38.43Q21.56-38.35 21.56-37.77L21.56-37.77 20.95-32.71Q20.87-32.08 20.31-32.06L20.31-32.06 12.45-31.79 11.38-22.41 19.09-22.68Q19.73-22.66 19.73-22.05L19.73-22.05 19.09-17.07Q18.99-16.5 18.46-16.46ZM37.08-0.51L37.08-0.51 37.28-2.39Q34.32 0.27 30.59 0.27L30.59 0.27Q27.78 0.27 26.45-1.78 25.12-3.83 25.12-6.91L25.12-6.91Q25.12-7.42 25.22-8.3L25.22-8.3 27.54-28.74Q27.61-29.32 28.15-29.35L28.15-29.35 33.08-29.54Q33.59-29.49 33.59-29.03L33.59-29.03 31.39-9.77Q31.32-9.13 31.32-8.59L31.32-8.59Q31.32-6.54 32.11-5.86 32.91-5.18 34.51-5.18 36.11-5.18 37.67-5.79L37.67-5.79 40.26-28.74Q40.33-29.32 40.87-29.35L40.87-29.35 45.8-29.52Q46.31-29.47 46.31-29L46.31-29 43.14-0.76Q43.06-0.17 42.48-0.12L42.48-0.12 37.72 0.1Q37.08 0.07 37.08-0.51ZM59.64-28.88L59.64-28.88 59.37-26.64Q62.89-29.74 66.11-29.74L66.11-29.74Q70.21-29.74 71.28-25.24L71.28-25.24Q71.58-24.02 71.58-22.94 71.58-21.85 71.5-21.19L71.5-21.19 69.16-0.73Q69.06-0.12 68.55-0.07L68.55-0.07 63.62 0.1Q63.08 0.05 63.08-0.37L63.08-0.37 65.3-19.7Q65.38-20.34 65.38-20.85L65.38-20.85Q65.38-22.85 64.44-23.57 63.5-24.29 62.06-24.29 60.62-24.29 59.05-23.68L59.05-23.68 56.44-0.73Q56.34-0.12 55.83-0.07L55.83-0.07 50.9 0.1Q50.36 0.05 50.36-0.37L50.36-0.37 53.58-28.76Q53.68-29.3 54.19-29.35L54.19-29.35 58.98-29.52Q59.64-29.49 59.64-28.88ZM88.2-29.35L90.52-29.42Q91.08-34.79 91.25-34.97 91.42-35.16 91.76-35.18L91.76-35.18 96.43-35.35Q97.08-35.3 97.08-34.74L97.08-34.74Q96.62-32.03 96.3-29.54L96.3-29.54 101.99-29.74Q102.58-29.71 102.58-29.1L102.58-29.1 101.89-25.22Q101.8-24.63 101.28-24.61L101.28-24.61 95.69-24.39Q94.03-9.45 94.03-7.91L94.03-7.91Q94.03-5.05 96.47-5.05L96.47-5.05Q97.72-5.05 98.89-5.44 100.06-5.83 100.36-5.83L100.36-5.83Q100.87-5.83 100.87-5.2L100.87-5.2 100.36-0.93Q100.31-0.56 100.17-0.39 100.04-0.22 98.98 0.02 97.91 0.27 95.35 0.27L95.35 0.27Q91.59 0.27 89.78-1.48 87.98-3.22 87.98-6.69 87.98-10.16 89.91-24.32L89.91-24.32 87.51-24.22Q86.9-24.24 86.9-24.83L86.9-24.83 87.56-28.76Q87.64-29.32 88.2-29.35L88.2-29.35ZM117.61-0.51L117.61-0.51 117.81-2.39Q114.86 0.27 111.12 0.27L111.12 0.27Q108.31 0.27 106.98-1.78 105.65-3.83 105.65-6.91L105.65-6.91Q105.65-7.42 105.75-8.3L105.75-8.3 108.07-28.74Q108.14-29.32 108.68-29.35L108.68-29.35 113.61-29.54Q114.12-29.49 114.12-29.03L114.12-29.03 111.93-9.77Q111.85-9.13 111.85-8.59L111.85-8.59Q111.85-6.54 112.65-5.86 113.44-5.18 115.04-5.18 116.64-5.18 118.2-5.79L118.2-5.79 120.79-28.74Q120.86-29.32 121.4-29.35L121.4-29.35 126.33-29.52Q126.84-29.47 126.84-29L126.84-29 123.67-0.76Q123.6-0.17 123.01-0.12L123.01-0.12 118.25 0.1Q117.61 0.07 117.61-0.51ZM132.43-29.35L134.75-29.42Q135.31-34.79 135.48-34.97 135.65-35.16 136-35.18L136-35.18 140.66-35.35Q141.32-35.3 141.32-34.74L141.32-34.74Q140.85-32.03 140.54-29.54L140.54-29.54 146.23-29.74Q146.81-29.71 146.81-29.1L146.81-29.1 146.13-25.22Q146.03-24.63 145.52-24.61L145.52-24.61 139.93-24.39Q138.27-9.45 138.27-7.91L138.27-7.91Q138.27-5.05 140.71-5.05L140.71-5.05Q141.95-5.05 143.12-5.44 144.3-5.83 144.59-5.83L144.59-5.83Q145.1-5.83 145.1-5.2L145.1-5.2 144.59-0.93Q144.54-0.56 144.41-0.39 144.27-0.22 143.21 0.02 142.15 0.27 139.58 0.27L139.58 0.27Q135.82 0.27 134.02-1.48 132.21-3.22 132.21-6.69 132.21-10.16 134.14-24.32L134.14-24.32 131.75-24.22Q131.14-24.24 131.14-24.83L131.14-24.83 131.8-28.76Q131.87-29.32 132.43-29.35L132.43-29.35ZM158.05 0.27Q153.72 0.27 151.7-2.33 149.69-4.93 149.69-9.91L149.69-9.91Q149.69-12.23 150.2-15.97 150.71-19.7 151.15-21.4 151.59-23.1 152.4-24.72 153.21-26.34 154.3-27.39L154.3-27.39Q156.72-29.74 160.85-29.74L160.85-29.74Q166.71-29.74 168.44-25.44L168.44-25.44Q169.37-23.14 169.37-19.89 169.37-16.63 168.87-13.13 168.37-9.64 167.93-7.97 167.49-6.3 166.69-4.7 165.9-3.1 164.8-2.05L164.8-2.05Q162.38 0.27 158.05 0.27ZM162.36-10.42L162.36-10.42Q162.63-11.72 163.06-15.27 163.48-18.82 163.48-20.53L163.48-20.53Q163.48-24.68 160.48-24.68L160.48-24.68Q159.06-24.68 158.15-23.34 157.23-22 156.67-18.87L156.67-18.87Q155.55-12.52 155.55-8.57 155.55-4.61 158.53-4.61L158.53-4.61Q159.94-4.61 160.88-5.97 161.82-7.32 162.36-10.42ZM190.48-23.29L190.48-23.29 187.87-23.56Q184.7-23.56 182.55-22.29L182.55-22.29 180.13-0.76Q180.03-0.15 179.52-0.1L179.52-0.1 174.59 0.1Q174.05 0.05 174.05-0.37L174.05-0.37 177.27-28.76Q177.37-29.3 177.89-29.35L177.89-29.35 182.65-29.52Q183.31-29.49 183.31-28.88L183.31-28.88 183.01-26.37Q184.57-27.95 186.04-28.85 187.5-29.74 188.98-29.74 190.46-29.74 191.24-29.61L191.24-29.61Q191.75-29.52 191.75-28.93L191.75-28.93Q191.75-27.25 191.19-23.93L191.19-23.93Q191.07-23.29 190.48-23.29Z" opacity="1" transform="matrix(1,0,0,1,0,0)" fill="black" class="wordmark-text-0" id="SvgjsPath1966"></path></svg></g></svg></g><g transform="matrix(1,0,0,1,0,53.92070405891603)"><svg viewBox="0 0 213.15844122715714 20.18032090328748" height="20.18032090328748" width="213.15844122715714"><g transform="matrix(1,0,0,1,0,0)"><svg width="213.15844122715714" viewBox="1.65 -36.25 531.243205127618 50.300000000000004" height="20.18032090328748" data-palette-color="#000000"><path d="M15.15 0.2Q13.7 0.2 11.8 0.05L11.8 0.05Q11.1 0 10.03-0.05 8.95-0.1 7.65-0.1L7.65-0.1 4.25-0.05Q3.35 0 1.75 0L1.75 0Q1.65 0 1.65-0.3 1.65-0.6 1.75-0.6L1.75-0.6Q3.65-0.6 4.53-0.85 5.4-1.1 5.73-1.83 6.05-2.55 6.05-4.05L6.05-4.05 6.05-27.2Q6.05-28.7 5.75-29.4 5.45-30.1 4.58-30.38 3.7-30.65 1.8-30.65L1.8-30.65Q1.7-30.65 1.7-30.95 1.7-31.25 1.8-31.25L1.8-31.25 4.3-31.2Q6.4-31.1 7.65-31.1L7.65-31.1Q9.55-31.1 11.4-31.25L11.4-31.25Q13.6-31.35 14.45-31.35L14.45-31.35Q19.65-31.35 23.65-29.35 27.65-27.35 29.88-23.9 32.1-20.45 32.1-16.15L32.1-16.15Q32.1-11.3 29.83-7.58 27.55-3.85 23.65-1.83 19.75 0.2 15.15 0.2L15.15 0.2ZM14.65-0.55Q18.65-0.55 21.75-2.23 24.85-3.9 26.58-7.18 28.3-10.45 28.3-15.05L28.3-15.05Q28.3-19.4 26.65-22.95 25-26.5 21.95-28.55 18.9-30.6 14.9-30.6L14.9-30.6Q12.75-30.6 11.58-30.35 10.4-30.1 9.85-29.35 9.3-28.6 9.3-27.1L9.3-27.1 9.3-4.6Q9.3-3.1 9.73-2.25 10.15-1.4 11.33-0.98 12.5-0.55 14.65-0.55L14.65-0.55ZM37.2 0Q37.1 0 37.1-0.3 37.1-0.6 37.2-0.6L37.2-0.6Q38.55-0.6 39.22-0.88 39.9-1.15 40.15-1.85 40.4-2.55 40.4-4.05L40.4-4.05 40.4-13.4Q40.4-15.2 40.02-16 39.65-16.8 38.75-16.8L38.75-16.8Q37.85-16.8 36.5-16.1L36.5-16.1 36.45-16.1Q36.25-16.1 36.15-16.35 36.05-16.6 36.2-16.7L36.2-16.7 42.7-19.7 42.9-19.75Q43-19.75 43.15-19.63 43.3-19.5 43.3-19.35L43.3-19.35Q43.3-19 43.25-17.35 43.2-15.7 43.2-13.45L43.2-13.45 43.2-4.05Q43.2-2.55 43.45-1.85 43.7-1.15 44.35-0.88 45-0.6 46.35-0.6L46.35-0.6Q46.5-0.6 46.5-0.3 46.5 0 46.35 0L46.35 0Q45.2 0 44.5-0.05L44.5-0.05 41.8-0.1 39.1-0.05Q38.4 0 37.2 0L37.2 0ZM41.4-25.6Q40.4-25.6 39.8-26.15 39.2-26.7 39.2-27.7L39.2-27.7Q39.2-28.7 39.8-29.25 40.4-29.8 41.4-29.8L41.4-29.8Q42.4-29.8 42.95-29.25 43.5-28.7 43.5-27.7L43.5-27.7Q43.5-26.7 42.95-26.15 42.4-25.6 41.4-25.6L41.4-25.6ZM53.2-16.25Q53.2-14.5 54.35-13.48 55.5-12.45 57.75-11.3L57.75-11.3Q59.5-10.4 60.47-9.75 61.45-9.1 62.15-8.05 62.85-7 62.85-5.5L62.85-5.5Q62.85-2.95 60.95-1.2 59.05 0.55 55.8 0.55L55.8 0.55Q53.15 0.55 51-0.95L51-0.95Q50.7-1.15 50.7-1.55L50.7-1.55 50.6-5.45Q50.6-5.6 50.87-5.63 51.15-5.65 51.2-5.5L51.2-5.5Q52.15-2.95 53.67-1.68 55.2-0.4 57.2-0.4L57.2-0.4Q58.75-0.4 59.62-1.13 60.5-1.85 60.5-3.3L60.5-3.3Q60.5-4.7 59.87-5.68 59.25-6.65 58.35-7.23 57.45-7.8 55.9-8.6L55.9-8.6Q54.25-9.4 53.27-10.05 52.3-10.7 51.62-11.75 50.95-12.8 50.95-14.35L50.95-14.35Q50.95-17.05 52.97-18.48 55-19.9 57.75-19.9L57.75-19.9Q59.75-19.9 61.4-19.15L61.4-19.15Q61.7-19.05 61.77-18.93 61.85-18.8 61.85-18.6L61.85-18.6Q61.85-17.6 61.8-17.05L61.8-17.05 61.75-14.95Q61.75-14.85 61.45-14.85 61.15-14.85 61.15-14.95L61.15-14.95Q61.15-16.55 59.47-17.75 57.8-18.95 55.95-18.95L55.95-18.95Q54.65-18.95 53.92-18.28 53.2-17.6 53.2-16.25L53.2-16.25ZM76.64 0.6Q73.39 0.6 71.19-0.83 68.99-2.25 67.94-4.5 66.89-6.75 66.89-9.25L66.89-9.25Q66.89-12.45 68.49-14.83 70.09-17.2 72.62-18.48 75.14-19.75 77.79-19.75L77.79-19.75Q79.99-19.75 81.82-18.88 83.64-18 83.64-16.7L83.64-16.7Q83.64-16.05 83.17-15.58 82.69-15.1 81.89-15.1L81.89-15.1Q80.54-15.1 79.69-16.75L79.69-16.75Q79.04-17.75 78.29-18.25 77.54-18.75 76.14-18.75L76.14-18.75Q73.34-18.75 71.77-16.57 70.19-14.4 70.19-10.75L70.19-10.75Q70.19-6.55 72.29-3.85 74.39-1.15 78.59-1.15L78.59-1.15Q81.64-1.15 83.69-2.8L83.69-2.8 83.74-2.8Q83.89-2.8 84.02-2.65 84.14-2.5 84.04-2.4L84.04-2.4Q82.29-0.85 80.52-0.13 78.74 0.6 76.64 0.6L76.64 0.6ZM96.89 0.65Q93.99 0.65 91.77-0.78 89.54-2.2 88.34-4.63 87.14-7.05 87.14-9.9L87.14-9.9Q87.14-13.15 88.72-15.43 90.29-17.7 92.77-18.82 95.24-19.95 97.79-19.95L97.79-19.95Q100.74-19.95 102.94-18.5 105.14-17.05 106.32-14.68 107.49-12.3 107.49-9.65L107.49-9.65Q107.49-6.55 106.04-4.23 104.59-1.9 102.17-0.63 99.74 0.65 96.89 0.65L96.89 0.65ZM98.34-0.3Q101.09-0.3 102.59-2.25 104.09-4.2 104.09-8.25L104.09-8.25Q104.09-11.35 103.07-13.8 102.04-16.25 100.24-17.63 98.44-19 96.14-19L96.14-19Q93.44-19 91.97-17.05 90.49-15.1 90.49-11.45L90.49-11.45Q90.49-8.4 91.49-5.85 92.49-3.3 94.29-1.8 96.09-0.3 98.34-0.3L98.34-0.3ZM130.84-19.3Q130.94-19.3 130.94-19 130.94-18.7 130.84-18.7L130.84-18.7Q129.54-18.7 128.66-17.9 127.79-17.1 126.99-15.05L126.99-15.05 120.74-0.05Q120.64 0.2 120.19 0.2L120.19 0.2Q119.74 0.2 119.64-0.05L119.64-0.05 112.64-15.15Q111.64-17.3 110.96-18 110.29-18.7 109.29-18.7L109.29-18.7Q109.14-18.7 109.14-19 109.14-19.3 109.29-19.3L109.29-19.3Q110.29-19.3 110.84-19.25L110.84-19.25 112.74-19.2 115.99-19.25Q116.74-19.3 117.99-19.3L117.99-19.3Q118.14-19.3 118.14-19 118.14-18.7 117.99-18.7L117.99-18.7Q114.99-18.7 114.99-17.5L114.99-17.5Q114.99-17.15 115.19-16.75L115.19-16.75 121.59-3.15 120.14-1.1 125.99-15.3Q126.34-16.25 126.34-16.75L126.34-16.75Q126.34-17.75 125.39-18.23 124.44-18.7 122.39-18.7L122.39-18.7Q122.29-18.7 122.29-19 122.29-19.3 122.39-19.3L122.39-19.3Q123.74-19.3 124.44-19.25L124.44-19.25 127.44-19.2 129.19-19.25Q129.69-19.3 130.84-19.3L130.84-19.3ZM141.94 0.6Q139.04 0.6 136.99-0.75 134.94-2.1 133.86-4.3 132.79-6.5 132.79-9L132.79-9Q132.79-11.95 134.19-14.43 135.59-16.9 138.01-18.32 140.44-19.75 143.34-19.75L143.34-19.75Q146.14-19.75 147.64-18.25 149.14-16.75 149.14-14.05L149.14-14.05Q149.14-13.35 149.01-13.05 148.89-12.75 148.54-12.75L148.54-12.75 145.74-12.75 145.79-13.65Q145.79-16.15 144.69-17.45 143.59-18.75 141.69-18.75L141.69-18.75Q139.04-18.75 137.56-16.65 136.09-14.55 136.09-10.9L136.09-10.9Q136.09-6.55 138.14-3.85 140.19-1.15 143.89-1.15L143.89-1.15Q145.39-1.15 146.46-1.55 147.54-1.95 148.89-2.8L148.89-2.8 148.94-2.8Q149.09-2.8 149.21-2.63 149.34-2.45 149.24-2.3L149.24-2.3Q145.84 0.6 141.94 0.6L141.94 0.6ZM135.19-12.7L135.14-13.35 146.49-13.55 146.49-12.75 135.19-12.7ZM158.33-14.1Q160.98-17.4 162.43-18.57 163.88-19.75 165.13-19.75L165.13-19.75Q166.23-19.75 167.23-19.15 168.23-18.55 168.23-17.7L168.23-17.7Q168.23-17.05 167.78-16.6 167.33-16.15 166.58-16.15L166.58-16.15Q166.13-16.15 165.81-16.32 165.48-16.5 165.03-16.85L165.03-16.85Q164.58-17.25 164.18-17.45 163.78-17.65 163.23-17.65L163.23-17.65Q162.48-17.65 161.58-16.9 160.68-16.15 158.53-13.55L158.53-13.55 158.33-14.1ZM153.63 0Q153.48 0 153.48-0.3 153.48-0.6 153.63-0.6L153.63-0.6Q154.98-0.6 155.63-0.88 156.28-1.15 156.51-1.85 156.73-2.55 156.73-4.05L156.73-4.05 156.73-13.95Q156.73-15.65 156.33-16.4 155.93-17.15 154.98-17.15L154.98-17.15Q154.18-17.15 152.28-16.4L152.28-16.4 152.18-16.4Q151.98-16.4 151.91-16.63 151.83-16.85 152.03-16.95L152.03-16.95 157.83-19.7Q157.93-19.75 158.13-19.75L158.13-19.75Q158.58-19.75 159.08-18.6 159.58-17.45 159.58-15.65L159.58-15.65 159.58-4.05Q159.58-2.55 159.96-1.85 160.33-1.15 161.33-0.88 162.33-0.6 164.43-0.6L164.43-0.6Q164.63-0.6 164.63-0.3 164.63 0 164.43 0L164.43 0Q162.83 0 161.88-0.05L161.88-0.05 158.18-0.1 155.43-0.05Q154.78 0 153.63 0L153.63 0ZM195.28-31.25Q195.38-31.25 195.38-30.95 195.38-30.65 195.28-30.65L195.28-30.65Q193.63-30.65 192.88-30.35 192.13-30.05 191.85-29.33 191.58-28.6 191.58-27.1L191.58-27.1 191.58 1.4Q191.58 6.35 189.28 9.28 186.98 12.2 182.63 12.2L182.63 12.2Q180.93 12.2 179.95 11.63 178.98 11.05 178.98 10.05L178.98 10.05Q178.98 9.3 179.43 8.85 179.88 8.4 180.68 8.4L180.68 8.4Q181.53 8.4 181.98 8.78 182.43 9.15 182.93 9.9L182.93 9.9Q183.38 10.6 183.73 10.9 184.08 11.2 184.73 11.2L184.73 11.2Q186.53 11.2 187.4 9.13 188.28 7.05 188.28 2.45L188.28 2.45 188.28-27.2Q188.28-28.7 187.93-29.4 187.58-30.1 186.55-30.38 185.53-30.65 183.38-30.65L183.38-30.65Q183.28-30.65 183.28-30.95 183.28-31.25 183.38-31.25L183.38-31.25 186.28-31.2Q188.58-31.1 189.88-31.1L189.88-31.1Q191.18-31.1 193.08-31.2L193.08-31.2 195.28-31.25ZM208.03 0.65Q205.13 0.65 202.9-0.78 200.67-2.2 199.47-4.63 198.28-7.05 198.28-9.9L198.28-9.9Q198.28-13.15 199.85-15.43 201.42-17.7 203.9-18.82 206.38-19.95 208.92-19.95L208.92-19.95Q211.88-19.95 214.07-18.5 216.28-17.05 217.45-14.68 218.63-12.3 218.63-9.65L218.63-9.65Q218.63-6.55 217.18-4.23 215.72-1.9 213.3-0.63 210.88 0.65 208.03 0.65L208.03 0.65ZM209.47-0.3Q212.22-0.3 213.72-2.25 215.22-4.2 215.22-8.25L215.22-8.25Q215.22-11.35 214.2-13.8 213.17-16.25 211.38-17.63 209.57-19 207.28-19L207.28-19Q204.57-19 203.1-17.05 201.63-15.1 201.63-11.45L201.63-11.45Q201.63-8.4 202.63-5.85 203.63-3.3 205.42-1.8 207.22-0.3 209.47-0.3L209.47-0.3ZM227.52-7.4Q227.52-4.45 228.55-3.05 229.57-1.65 231.67-1.65L231.67-1.65Q233.62-1.65 235.6-2.78 237.57-3.9 238.97-5.85L238.97-5.85 239.22-5.3Q236.92-2.35 234.67-0.98 232.42 0.4 230.02 0.4L230.02 0.4Q227.47 0.4 226.1-1.18 224.72-2.75 224.72-5.75L224.72-5.75 224.72-13.4Q224.72-15.35 224.37-16.23 224.02-17.1 223.22-17.1L223.22-17.1Q222.52-17.1 221.52-16.6L221.52-16.6 221.47-16.6Q221.27-16.6 221.17-16.85 221.07-17.1 221.27-17.2L221.27-17.2 226.82-19.7 226.97-19.75Q227.12-19.75 227.32-19.63 227.52-19.5 227.52-19.35L227.52-19.35 227.52-7.4ZM240.82 3.5Q240.82 8.25 238.22 11.15 235.62 14.05 230.82 14.05L230.82 14.05Q228.07 14.05 226.17 12.95 224.27 11.85 224.27 10.2L224.27 10.2Q224.27 9.45 224.72 9.05 225.17 8.65 225.87 8.65L225.87 8.65Q226.52 8.65 226.97 9.03 227.42 9.4 228.02 10.25L228.02 10.25Q228.97 11.55 230 12.28 231.02 13 232.97 13L232.97 13Q235.27 13 236.65 11.2 238.02 9.4 238.02 4.7L238.02 4.7 238.02-13.4Q238.02-15.35 237.67-16.23 237.32-17.1 236.52-17.1L236.52-17.1Q235.87-17.1 234.87-16.6L234.87-16.6 234.82-16.6Q234.62-16.6 234.5-16.85 234.37-17.1 234.57-17.2L234.57-17.2 240.12-19.7 240.32-19.75Q240.47-19.75 240.65-19.63 240.82-19.5 240.82-19.35L240.82-19.35 240.82 3.5ZM259.02 0Q258.92 0 258.92-0.3 258.92-0.6 259.02-0.6L259.02-0.6Q260.37-0.6 261.04-0.88 261.72-1.15 261.97-1.85 262.22-2.55 262.22-4.05L262.22-4.05 262.22-13.4Q262.22-15.2 261.84-16 261.47-16.8 260.57-16.8L260.57-16.8Q259.67-16.8 258.32-16.1L258.32-16.1 258.27-16.1Q258.07-16.1 257.97-16.35 257.87-16.6 258.02-16.7L258.02-16.7 264.52-19.7 264.72-19.75Q264.82-19.75 264.97-19.63 265.12-19.5 265.12-19.35L265.12-19.35Q265.12-19 265.07-17.35 265.02-15.7 265.02-13.45L265.02-13.45 265.02-4.05Q265.02-2.55 265.27-1.85 265.52-1.15 266.17-0.88 266.82-0.6 268.17-0.6L268.17-0.6Q268.32-0.6 268.32-0.3 268.32 0 268.17 0L268.17 0Q267.02 0 266.32-0.05L266.32-0.05 263.62-0.1 260.92-0.05Q260.22 0 259.02 0L259.02 0ZM263.22-25.6Q262.22-25.6 261.62-26.15 261.02-26.7 261.02-27.7L261.02-27.7Q261.02-28.7 261.62-29.25 262.22-29.8 263.22-29.8L263.22-29.8Q264.22-29.8 264.77-29.25 265.32-28.7 265.32-27.7L265.32-27.7Q265.32-26.7 264.77-26.15 264.22-25.6 263.22-25.6L263.22-25.6ZM285.71 0Q285.56 0 285.56-0.3 285.56-0.6 285.71-0.6L285.71-0.6Q287.06-0.6 287.71-0.88 288.37-1.15 288.59-1.85 288.81-2.55 288.81-4.05L288.81-4.05 288.81-12.15Q288.81-15.15 287.69-16.53 286.56-17.9 284.21-17.9L284.21-17.9Q282.37-17.9 280.49-16.75 278.62-15.6 277.26-13.6L277.26-13.6 277.06-14.2Q279.26-17.15 281.41-18.55 283.56-19.95 285.87-19.95L285.87-19.95Q288.62-19.95 290.14-18.38 291.66-16.8 291.66-13.85L291.66-13.85 291.66-4.05Q291.66-2.55 291.89-1.85 292.12-1.15 292.76-0.88 293.41-0.6 294.76-0.6L294.76-0.6Q294.91-0.6 294.91-0.3 294.91 0 294.76 0L294.76 0Q293.62 0 292.96-0.05L292.96-0.05 290.26-0.1 287.51-0.05Q286.87 0 285.71 0L285.71 0ZM272.26 0Q272.12 0 272.12-0.3 272.12-0.6 272.26-0.6L272.26-0.6Q273.62-0.6 274.26-0.88 274.91-1.15 275.14-1.85 275.37-2.55 275.37-4.05L275.37-4.05 275.37-13.95Q275.37-15.65 274.96-16.4 274.56-17.15 273.62-17.15L273.62-17.15Q272.81-17.15 270.91-16.4L270.91-16.4 270.81-16.4Q270.62-16.4 270.54-16.63 270.46-16.85 270.66-16.95L270.66-16.95 276.46-19.7Q276.56-19.75 276.76-19.75L276.76-19.75Q277.21-19.75 277.71-18.6 278.21-17.45 278.21-15.65L278.21-15.65 278.21-4.05Q278.21-2.55 278.44-1.85 278.66-1.15 279.31-0.88 279.96-0.6 281.31-0.6L281.31-0.6Q281.46-0.6 281.46-0.3 281.46 0 281.31 0L281.31 0Q280.16 0 279.51-0.05L279.51-0.05 276.81-0.1 274.06-0.05Q273.41 0 272.26 0L272.26 0ZM313.61-27.2Q313.61-28.7 313.31-29.4 313.01-30.1 312.13-30.38 311.26-30.65 309.36-30.65L309.36-30.65Q309.26-30.65 309.26-30.95 309.26-31.25 309.36-31.25L309.36-31.25 311.86-31.2Q313.96-31.1 315.21-31.1L315.21-31.1Q316.66-31.1 318.76-31.2L318.76-31.2 321.11-31.25Q321.26-31.25 321.26-30.95 321.26-30.65 321.11-30.65L321.11-30.65Q319.26-30.65 318.38-30.35 317.51-30.05 317.19-29.33 316.86-28.6 316.86-27.1L316.86-27.1 316.86-4.05Q316.86-2.5 317.16-1.8 317.46-1.1 318.33-0.85 319.21-0.6 321.11-0.6L321.11-0.6Q321.26-0.6 321.26-0.3 321.26 0 321.11 0L321.11 0Q319.61 0 318.71-0.05L318.71-0.05 315.21-0.1 311.81-0.05Q310.91 0 309.31 0L309.31 0Q309.21 0 309.21-0.3 309.21-0.6 309.31-0.6L309.31-0.6Q311.21-0.6 312.08-0.85 312.96-1.1 313.29-1.83 313.61-2.55 313.61-4.05L313.61-4.05 313.61-27.2ZM326.16-7.25L318.21-17.25 320.71-19.25 328.01-9.95Q331.66-5.2 333.58-3.25 335.51-1.3 336.56-0.95 337.61-0.6 339.61-0.6L339.61-0.6Q339.76-0.6 339.76-0.3 339.76 0 339.61 0L339.61 0 334.01 0Q333.61 0 332.58 0.03 331.56 0.05 329.71-2.53 327.86-5.1 326.16-7.25L326.16-7.25ZM327.56-27.2Q329.21-28.85 329.21-29.65L329.21-29.65Q329.21-30.65 326.26-30.65L326.26-30.65Q326.16-30.65 326.16-30.95 326.16-31.25 326.26-31.25L326.26-31.25 328.41-31.2Q330.41-31.1 332.06-31.1L332.06-31.1Q333.71-31.1 335.51-31.2L335.51-31.2 337.36-31.25Q337.51-31.25 337.51-30.95 337.51-30.65 337.36-30.65L337.36-30.65Q335.31-30.65 333.01-29.75 330.71-28.85 328.71-26.9L328.71-26.9 315.91-14.35 314.66-14.35 327.56-27.2ZM354.61 0Q354.46 0 354.46-0.3 354.46-0.6 354.61-0.6L354.61-0.6Q355.96-0.6 356.61-0.88 357.26-1.15 357.48-1.85 357.71-2.55 357.71-4.05L357.71-4.05 357.71-12.15Q357.71-15.15 356.58-16.53 355.46-17.9 353.11-17.9L353.11-17.9Q351.26-17.9 349.38-16.75 347.51-15.6 346.16-13.6L346.16-13.6 345.96-14.2Q348.16-17.15 350.31-18.55 352.46-19.95 354.76-19.95L354.76-19.95Q357.51-19.95 359.03-18.38 360.56-16.8 360.56-13.85L360.56-13.85 360.56-4.05Q360.56-2.55 360.78-1.85 361.01-1.15 361.66-0.88 362.31-0.6 363.66-0.6L363.66-0.6Q363.81-0.6 363.81-0.3 363.81 0 363.66 0L363.66 0Q362.51 0 361.86-0.05L361.86-0.05 359.16-0.1 356.41-0.05Q355.76 0 354.61 0L354.61 0ZM341.16 0Q341.01 0 341.01-0.3 341.01-0.6 341.16-0.6L341.16-0.6Q342.51-0.6 343.16-0.88 343.81-1.15 344.03-1.85 344.26-2.55 344.26-4.05L344.26-4.05 344.26-13.95Q344.26-15.65 343.86-16.4 343.46-17.15 342.51-17.15L342.51-17.15Q341.71-17.15 339.81-16.4L339.81-16.4 339.71-16.4Q339.51-16.4 339.43-16.63 339.36-16.85 339.56-16.95L339.56-16.95 345.36-19.7Q345.46-19.75 345.66-19.75L345.66-19.75Q346.11-19.75 346.61-18.6 347.11-17.45 347.11-15.65L347.11-15.65 347.11-4.05Q347.11-2.55 347.33-1.85 347.56-1.15 348.21-0.88 348.86-0.6 350.21-0.6L350.21-0.6Q350.36-0.6 350.36-0.3 350.36 0 350.21 0L350.21 0Q349.06 0 348.41-0.05L348.41-0.05 345.71-0.1 342.96-0.05Q342.31 0 341.16 0L341.16 0ZM376.31 0.65Q373.41 0.65 371.18-0.78 368.96-2.2 367.76-4.63 366.56-7.05 366.56-9.9L366.56-9.9Q366.56-13.15 368.13-15.43 369.71-17.7 372.18-18.82 374.66-19.95 377.21-19.95L377.21-19.95Q380.16-19.95 382.36-18.5 384.56-17.05 385.73-14.68 386.91-12.3 386.91-9.65L386.91-9.65Q386.91-6.55 385.46-4.23 384.01-1.9 381.58-0.63 379.16 0.65 376.31 0.65L376.31 0.65ZM377.76-0.3Q380.51-0.3 382.01-2.25 383.51-4.2 383.51-8.25L383.51-8.25Q383.51-11.35 382.48-13.8 381.46-16.25 379.66-17.63 377.86-19 375.56-19L375.56-19Q372.86-19 371.38-17.05 369.91-15.1 369.91-11.45L369.91-11.45Q369.91-8.4 370.91-5.85 371.91-3.3 373.71-1.8 375.51-0.3 377.76-0.3L377.76-0.3ZM392.05-15.15Q391.15-17.3 390.43-18 389.7-18.7 388.7-18.7L388.7-18.7Q388.55-18.7 388.55-19 388.55-19.3 388.7-19.3L388.7-19.3Q389.7-19.3 390.25-19.25L390.25-19.25 392.15-19.2 395.15-19.25Q395.9-19.3 397.3-19.3L397.3-19.3Q397.45-19.3 397.45-19 397.45-18.7 397.3-18.7L397.3-18.7Q395.9-18.7 395.15-18.43 394.4-18.15 394.4-17.5L394.4-17.5Q394.4-17.15 394.6-16.75L394.6-16.75 400.25-3.1 398.75-1.25 405-19.3Q405.15-19.5 405.6-19.5L405.6-19.5Q406.1-19.5 406.15-19.3L406.15-19.3 413.25-3.1 411.85-1.1 417.1-15.3Q417.4-16.15 417.4-16.75L417.4-16.75Q417.4-17.75 416.48-18.23 415.55-18.7 413.5-18.7L413.5-18.7Q413.4-18.7 413.4-19 413.4-19.3 413.5-19.3L413.5-19.3Q414.85-19.3 415.55-19.25L415.55-19.25 418.55-19.2 420.35-19.25Q420.85-19.3 421.9-19.3L421.9-19.3Q422.05-19.3 422.05-19 422.05-18.7 421.9-18.7L421.9-18.7Q420.65-18.7 419.75-17.9 418.85-17.1 418.1-15.05L418.1-15.05 412.45-0.05Q412.45 0.15 411.9 0.15L411.9 0.15Q411.45 0.15 411.3-0.05L411.3-0.05 404.15-16.25 405.65-18.1 399.4-0.05Q399.35 0.15 398.85 0.15L398.85 0.15Q398.4 0.15 398.25-0.05L398.25-0.05 392.05-15.15ZM424.15 0Q424 0 424-0.3 424-0.6 424.15-0.6L424.15-0.6Q425.5-0.6 426.15-0.88 426.8-1.15 427.05-1.88 427.3-2.6 427.3-4.05L427.3-4.05 427.3-29.9Q427.3-31.7 426.95-32.5 426.6-33.3 425.7-33.3L425.7-33.3Q424.95-33.3 423.4-32.6L423.4-32.6 423.3-32.6Q423.15-32.6 423.08-32.85 423-33.1 423.15-33.15L423.15-33.15 429.55-36.2Q429.65-36.25 429.8-36.25L429.8-36.25Q429.95-36.25 430.1-36.13 430.25-36 430.25-35.85L430.25-35.85 430.25-4.05Q430.25-2.6 430.48-1.9 430.7-1.2 431.35-0.9 432-0.6 433.35-0.6L433.35-0.6Q433.5-0.6 433.5-0.3 433.5 0 433.35 0L433.35 0Q432.25 0 431.55-0.05L431.55-0.05 428.75-0.1 426.05-0.05Q425.35 0 424.15 0L424.15 0ZM446 0.6Q443.1 0.6 441.05-0.75 439-2.1 437.92-4.3 436.85-6.5 436.85-9L436.85-9Q436.85-11.95 438.25-14.43 439.65-16.9 442.07-18.32 444.5-19.75 447.4-19.75L447.4-19.75Q450.2-19.75 451.7-18.25 453.2-16.75 453.2-14.05L453.2-14.05Q453.2-13.35 453.07-13.05 452.95-12.75 452.6-12.75L452.6-12.75 449.8-12.75 449.85-13.65Q449.85-16.15 448.75-17.45 447.65-18.75 445.75-18.75L445.75-18.75Q443.1-18.75 441.62-16.65 440.15-14.55 440.15-10.9L440.15-10.9Q440.15-6.55 442.2-3.85 444.25-1.15 447.95-1.15L447.95-1.15Q449.45-1.15 450.52-1.55 451.6-1.95 452.95-2.8L452.95-2.8 453-2.8Q453.15-2.8 453.27-2.63 453.4-2.45 453.3-2.3L453.3-2.3Q449.9 0.6 446 0.6L446 0.6ZM439.25-12.7L439.2-13.35 450.55-13.55 450.55-12.75 439.25-12.7ZM464.75 0.65Q462.64 0.65 460.87-0.55 459.09-1.75 458.02-3.93 456.94-6.1 456.94-8.9L456.94-8.9Q456.94-12.45 458.69-14.95 460.44-17.45 463.09-18.7 465.75-19.95 468.34-19.95L468.34-19.95Q471.79-19.95 474.44-17.7L474.44-17.7 473.89-14.35Q472.54-16.55 470.94-17.75 469.34-18.95 467-18.95L467-18.95Q463.84-18.95 462.02-16.73 460.19-14.5 460.19-10.4L460.19-10.4Q460.19-7.65 461.04-5.55 461.89-3.45 463.37-2.3 464.84-1.15 466.69-1.15L466.69-1.15Q468.75-1.15 470.44-2.25 472.14-3.35 474-5.4L474-5.4 474.39-5.05Q472.09-2.45 469.89-0.9 467.69 0.65 464.75 0.65L464.75 0.65ZM475.94-5.5Q475.94-3.7 476.37-2.9 476.79-2.1 477.75-2.1L477.75-2.1Q479.19-2.1 480.34-2.8L480.34-2.8 480.44-2.85Q480.64-2.85 480.72-2.6 480.79-2.35 480.64-2.25L480.64-2.25 475.14 0.35Q474.94 0.45 474.75 0.45L474.75 0.45Q474.09 0.45 473.62-0.75 473.14-1.95 473.14-4.05L473.14-4.05 473.14-29.85Q473.14-31.65 472.77-32.45 472.39-33.25 471.5-33.25L471.5-33.25Q470.84-33.25 469.19-32.55L469.19-32.55 469.09-32.55Q468.89-32.55 468.82-32.77 468.75-33 468.89-33.1L468.89-33.1 475.25-36.2Q475.34-36.25 475.5-36.25L475.5-36.25Q475.64-36.25 475.79-36.13 475.94-36 475.94-35.85L475.94-35.85 475.94-5.5ZM490.44 14.05Q487.44 14.05 485.54 12.98 483.64 11.9 483.64 10.3L483.64 10.3Q483.64 9.45 484.09 9.05 484.54 8.65 485.14 8.65L485.14 8.65Q485.84 8.65 486.29 9.03 486.74 9.4 487.39 10.25L487.39 10.25Q488.34 11.55 489.34 12.28 490.34 13 492.34 13L492.34 13Q494.74 13 496.19 11.25 497.64 9.5 497.64 4.7L497.64 4.7 497.64-18.05Q498.64-18.45 499.09-18.75 499.54-19.05 499.94-19.75L499.94-19.75Q499.99-19.85 500.19-19.78 500.39-19.7 500.39-19.6L500.39-19.6 500.39 3.5Q500.39 8.3 497.77 11.18 495.14 14.05 490.44 14.05L490.44 14.05ZM489.74 0.5Q486.69 0.5 484.62-1.75 482.54-4 482.54-8.05L482.54-8.05Q482.54-11.65 484.24-14.35 485.94-17.05 488.52-18.5 491.09-19.95 493.69-19.95L493.69-19.95Q495.44-19.95 497.04-19.3 498.64-18.65 499.64-17.5L499.64-17.5 497.64-14.7Q497.64-16.55 496.04-17.75 494.44-18.95 492.44-18.95L492.44-18.95Q489.49-18.95 487.67-16.32 485.84-13.7 485.84-9.5L485.84-9.5Q485.84-5.75 487.37-3.45 488.89-1.15 491.44-1.15L491.44-1.15Q493.34-1.15 495.02-2.33 496.69-3.5 498.44-5.35L498.44-5.35 498.84-5Q496.64-2.5 494.52-1 492.39 0.5 489.74 0.5L489.74 0.5ZM514.99 0.6Q512.09 0.6 510.04-0.75 507.99-2.1 506.92-4.3 505.84-6.5 505.84-9L505.84-9Q505.84-11.95 507.24-14.43 508.64-16.9 511.06-18.32 513.49-19.75 516.39-19.75L516.39-19.75Q519.19-19.75 520.69-18.25 522.19-16.75 522.19-14.05L522.19-14.05Q522.19-13.35 522.07-13.05 521.94-12.75 521.59-12.75L521.59-12.75 518.79-12.75 518.84-13.65Q518.84-16.15 517.74-17.45 516.64-18.75 514.74-18.75L514.74-18.75Q512.09-18.75 510.62-16.65 509.14-14.55 509.14-10.9L509.14-10.9Q509.14-6.55 511.19-3.85 513.24-1.15 516.94-1.15L516.94-1.15Q518.44-1.15 519.51-1.55 520.59-1.95 521.94-2.8L521.94-2.8 521.99-2.8Q522.14-2.8 522.26-2.63 522.39-2.45 522.29-2.3L522.29-2.3Q518.89 0.6 514.99 0.6L514.99 0.6ZM508.24-12.7L508.19-13.35 519.54-13.55 519.54-12.75 508.24-12.7ZM528.34-31Q528.29-31.2 529.04-31.33 529.79-31.45 530.64-31.45L530.64-31.45Q531.49-31.45 532.21-31.33 532.94-31.2 532.89-31L532.89-31Q532.09-26.7 531.69-21.8 531.29-16.9 530.89-9.45L530.89-9.45Q530.89-9.3 530.54-9.3L530.54-9.3Q530.14-9.3 530.14-9.45L530.14-9.45Q529.89-16.25 529.51-21.45 529.14-26.65 528.34-31L528.34-31ZM530.39 0.55Q529.39 0.55 528.79-0.05 528.19-0.65 528.19-1.6L528.19-1.6Q528.19-2.55 528.79-3.13 529.39-3.7 530.39-3.7L530.39-3.7Q531.44-3.7 531.99-3.15 532.54-2.6 532.54-1.6L532.54-1.6Q532.54-0.6 531.99-0.03 531.44 0.55 530.39 0.55L530.39 0.55Z" opacity="1" transform="matrix(1,0,0,1,0,0)" fill="black" class="slogan-text-1" id="SvgjsPath1965"></path></svg></g></svg></g></svg></g></svg></g><g transform="matrix(1,0,0,1,40.71326227438702,0)"><svg viewBox="0 0 131.7319166783831 67.89298320708018" height="67.89298320708018" width="131.7319166783831"><g><svg xmlns="http://www.w3.org/2000/svg" xmlns:xlink="http://www.w3.org/1999/xlink" version="1.1" x="0" y="0" viewBox="8 27.384999999999994 80 41.23100000000001" enable-background="new 0 0 96 96" xml:space="preserve" height="67.89298320708018" width="131.7319166783831" class="icon-icon-0" data-fill-palette-color="quaternary" id="SvgjsSvg1964"><g fill="black"><circle cx="69.898" cy="31.511" r="4.1" fill="black"></circle><path d="M85.461 37.1V54.364H80.231C80.502 54.222 80.776 54.087 81.045 53.988A3.56 3.56 0 0 0 83.171 49.427L78.743 37.26A3.56 3.56 0 0 0 74.181 35.134 3.54 3.54 0 0 0 71.888 38.013L65.129 41.201 65.583 40 64.909 39.747 64.197 41.642 63.968 41.75A1.85 1.85 0 0 0 63.083 44.215C63.107 44.27 63.143 44.316 63.173 44.365L63.178 46.396 63.721 44.95A1.84 1.84 0 0 0 65.548 45.097L72.781 41.684 75.506 49.169H71.152A2.204 2.204 0 0 0 68.945 51.373V65.66C68.945 67.29 70.015 68.613 71.334 68.613S73.721 67.29 73.721 65.66V54.824H75.02V68.614H77.742V56.902H85.241V68.615H87.963V56.902H88V37.1z" fill="black"></path><path d="M58.529 48.129H65.304C65.888 48.129 66.347 47.832 66.347 47.453S65.888 46.776 65.304 46.776H58.529C57.943 46.776 57.486 47.073 57.486 47.453 57.486 47.832 57.943 48.129 58.529 48.129" fill="black"></path><polygon points="66.669,48.422 63.006,48.422 62.971,48.422 33.03,48.422 32.995,48.422 29.331,48.422 29.317,48.422    29.295,48.422 29.295,52.977 29.295,68.613 29.331,68.613 32.995,68.613 33.03,68.613 33.03,52.977 62.971,52.977 62.971,68.613    63.006,68.613 66.669,68.613 66.705,68.613 66.705,52.977 66.705,48.422 66.684,48.422  " fill="black"></polygon><circle cx="26.102" cy="31.511" r="4.1" fill="black"></circle><path d="M24.848 49.17H20.494L23.22 41.685 30.453 45.098A1.84 1.84 0 0 0 32.28 44.951L32.823 46.397 32.827 44.366C32.858 44.316 32.892 44.27 32.918 44.216A1.85 1.85 0 0 0 32.033 41.751L31.804 41.643 31.092 39.748 30.417 40 30.869 41.201 24.112 38.013C23.943 36.742 23.106 35.602 21.818 35.134A3.56 3.56 0 0 0 17.257 37.26L12.829 49.428A3.56 3.56 0 0 0 14.955 53.989C15.225 54.088 15.497 54.223 15.77 54.365H10.54V37.1H8V56.904H8.04V68.616H10.761V56.902H18.26V68.614H20.981V54.824H22.279V65.66C22.279 67.29 23.348 68.613 24.666 68.613S27.053 67.29 27.053 65.66V51.374A2.2 2.2 0 0 0 24.848 49.17" fill="black"></path><path d="M29.652 47.453C29.652 47.832 30.11 48.129 30.695 48.129H37.47C38.055 48.129 38.513 47.832 38.513 47.453S38.055 46.776 37.47 46.776H30.695C30.11 46.776 29.652 47.073 29.652 47.453" fill="black"></path></g></svg></g></svg></g><g></g></svg></g></svg></g></svg></g></svg></g><defs><mask></mask></defs></svg><rect width="342.8515585177538" height="342.8515585177538" fill="black" stroke="none" visibility="hidden"></rect></g></mask><linearGradient x1="0" x2="1" y1="0.5" y2="0.5" id="9537d446-6f89-4fc4-b639-9d5ab66379c9"><stop stop-color="#ffa62e" offset="0"></stop><stop stop-color="#f71b3d" offset="1"></stop></linearGradient></svg><rect width="342.8515585177538" height="342.8515585177538" fill="none" stroke="none" visibility="hidden"></rect></g></svg></g></svg>